PathFileType	4	(X/Y/Z)	D:\TRACE\v60_Jaco2_6-2-23\BothDRS_Motion1_8-platform.trc
DataRate	CameraRate	NumFrames	NumMarkers	Units	OrigDataRate	OrigDataStartFrame	OrigNumFrames
100.00	100.00	      60	5	mm	100.00	5626	      7500
Frame#	Time	Left_Front			Right_Front			Left_Aft			Right_Aft			Post			
		X1	Y1	Z1	X2	Y2	Z2	X3	Y3	Z3	X4	Y4	Z4	X5	Y5	Z5	

5626	56.250	-756.96381	-17.01350	-645.13446	813.40002	-15.12566	-650.01642	-664.60010	24.68480	489.46841	777.48071	25.53441	499.31396	28.44501	1269.33765	-1017.51276	
5627	56.260	-756.28223	-16.86360	-645.04266	813.87006	-15.05121	-650.24078	-663.89069	24.34908	489.57690	777.90521	25.34294	499.36774	29.11597	1269.54346	-1016.69086	
5628	56.270	-755.68439	-16.83263	-644.87250	814.27771	-14.92562	-650.14972	-663.40363	24.19673	489.66803	778.41418	25.21065	499.44131	29.99105	1269.73071	-1016.01813	
5629	56.280	-755.09796	-16.82592	-644.75574	814.83582	-14.57954	-649.85413	-662.99091	24.08194	489.77881	779.04224	25.14283	499.49127	30.62379	1270.05347	-1015.38458	
5630	56.290	-754.41644	-16.28823	-644.89099	815.23407	-14.35424	-649.94238	-662.48743	24.04275	489.67648	779.74969	25.14784	499.49786	30.95327	1270.25464	-1015.19794	
5631	56.300	-754.15039	-16.11573	-644.81055	815.89178	-14.06999	-649.88361	-662.09991	24.05172	489.61865	780.05328	24.99494	499.61261	31.22462	1270.66980	-1015.30023	
5632	56.310	-753.82947	-15.87635	-644.87683	816.41925	-13.80371	-649.86310	-661.70856	24.10387	489.54901	780.44391	24.79833	499.66849	31.89651	1271.01782	-1014.97021	
5633	56.320	-753.26276	-15.60711	-644.84076	816.75861	-13.63160	-649.80450	-661.15881	23.90284	489.64795	780.90942	24.61011	499.60229	32.39424	1271.32043	-1014.80396	
5634	56.330	-752.96680	-15.61197	-644.68146	817.13306	-13.71840	-649.87939	-660.83960	23.72163	489.77911	781.23920	24.42497	499.65720	32.58718	1271.60193	-1014.63409	
5635	56.340	-752.75049	-15.62598	-644.70508	817.42841	-13.85765	-649.92432	-660.53827	23.51011	489.79611	781.69147	24.31339	499.73615	32.92889	1271.92871	-1014.36768	
5636	56.350	-752.35321	-15.24428	-644.53589	817.77246	-13.13617	-649.66132	-660.31763	23.40106	489.77936	782.17847	24.05892	499.73688	33.59414	1272.38098	-1014.17603	
5637	56.360	-752.11633	-14.84482	-644.33405	818.12402	-12.77046	-649.51923	-659.98627	23.14379	489.96503	782.32513	23.84910	499.78842	33.81303	1272.88232	-1013.72614	
5638	56.370	-751.61310	-14.36794	-644.38409	818.42316	-12.68000	-649.48730	-659.68988	23.04138	490.08136	782.49146	23.74023	499.86163	34.31741	1273.21619	-1012.97632	
5639	56.380	-751.38452	-14.23641	-644.30151	818.93341	-12.56520	-649.36218	-659.54742	23.04456	490.10648	782.72992	23.63330	500.02411	34.45216	1273.52710	-1012.22455	
5640	56.390	-751.21381	-14.30778	-644.29340	818.99078	-12.29198	-649.46863	-659.23499	22.64396	490.45993	782.89594	23.53221	500.08542	34.51981	1273.90344	-1011.46301	
5641	56.400	-751.05658	-14.13261	-644.28558	819.17743	-12.17146	-649.45795	-659.11212	22.63458	490.10205	783.05945	23.38704	500.11139	34.82302	1274.13831	-1010.80725	
5642	56.410	-750.77197	-13.71802	-644.38019	819.28729	-12.05015	-649.43280	-658.91022	22.40274	490.06241	783.11292	23.03167	500.17563	34.75466	1274.50647	-1009.62067	
5643	56.420	-750.54535	-13.34974	-644.24963	819.40839	-11.78489	-649.32697	-658.84247	22.38222	490.09210	783.26953	22.89673	500.27548	35.11458	1274.66907	-1008.83301	
5644	56.430	-750.37329	-13.03392	-644.20209	819.41809	-11.42482	-649.28333	-658.61841	22.17816	490.41898	783.22375	22.84146	500.36285	35.09030	1275.21387	-1008.40118	
5645	56.440	-750.28265	-12.82659	-644.14758	819.50006	-11.09086	-649.25592	-658.70459	22.43027	490.41211	783.52545	22.74925	500.38574	34.95226	1275.63574	-1008.03510	
5646	56.450	-750.29730	-12.67263	-644.05884	819.57306	-10.82886	-649.17712	-658.68188	22.23719	490.43304	783.59613	22.52127	500.42136	34.84105	1276.13721	-1007.73364	
5647	56.460	-750.31616	-12.50388	-644.06628	819.70264	-10.64631	-649.10687	-658.62622	21.88074	490.52924	783.51306	22.32155	500.47375	34.93840	1276.36145	-1007.59851	
5648	56.470	-750.23102	-12.46398	-644.05670	819.66180	-10.35094	-649.09357	-658.59509	21.62964	490.63809	783.59991	22.13802	500.60480	35.00305	1276.71484	-1007.32886	
5649	56.480	-750.27252	-12.18917	-643.88617	819.66827	-10.05256	-649.06549	-658.53528	21.55141	490.82733	783.64044	22.03755	500.68991	35.11169	1277.18005	-1007.08533	
5650	56.490	-750.22247	-11.97037	-643.73706	819.64697	-9.71028	-649.05615	-658.49426	21.48184	491.11914	783.71814	21.92069	500.68610	35.40018	1277.54675	-1006.71741	
5651	56.500	-750.34393	-11.62891	-643.64490	819.60571	-9.67655	-649.07147	-658.23090	20.92607	491.66241	783.76691	21.74455	500.78281	35.47498	1277.79309	-1006.39868	
5652	56.510	-750.41339	-11.40363	-643.67084	819.56354	-9.47827	-649.06500	-658.42633	20.62255	490.89215	783.71637	21.45022	500.84851	35.61858	1278.17004	-1005.94373	
5653	56.520	-750.34320	-11.18171	-643.60236	819.50366	-9.28676	-649.03406	-658.49023	20.43970	491.00809	783.93079	21.06553	500.90457	35.22918	1278.52979	-1005.06433	
5654	56.530	-750.38177	-10.91463	-643.47528	819.44324	-9.05306	-648.94977	-658.54926	20.31093	491.02756	783.58679	20.87588	500.94031	35.16710	1279.04883	-1004.41632	
5655	56.540	-750.31720	-10.42154	-643.52448	819.69006	-8.60380	-648.67303	-658.58044	20.26008	491.03296	783.66858	20.76027	500.97928	35.32616	1279.65320	-1003.58002	
5656	56.550	-750.45465	-9.99382	-643.35211	819.57611	-8.19966	-648.58087	-658.60522	20.20654	491.07639	783.73431	20.61485	501.03979	34.97589	1279.99475	-1002.64813	
5657	56.560	-750.71124	-9.70038	-643.30676	819.42792	-7.86062	-648.48212	-659.39063	20.92618	490.54678	783.55292	20.40088	501.08093	34.76503	1280.38672	-1002.02496	
5658	56.570	-751.08875	-9.34124	-643.32727	818.97076	-7.56007	-648.39172	-659.32037	20.03834	491.23126	783.02454	20.14773	501.29202	34.62028	1281.04102	-1000.96869	
5659	56.580	-751.39020	-9.03474	-643.34766	818.92194	-7.41054	-648.18488	-659.99170	20.08722	491.60562	782.64960	19.77265	501.44061	34.00802	1281.64648	-1000.18030	
5660	56.590	-751.63440	-8.75236	-643.32007	818.37671	-7.19833	-648.30536	-660.27783	19.89794	491.57025	782.46533	19.62220	501.54602	33.95673	1282.06580	-999.61139	
5661	56.600	-751.77667	-8.47156	-643.22638	818.16809	-6.78280	-648.32343	-660.35797	19.47995	491.68164	782.39392	19.53625	501.61847	33.81391	1282.34619	-998.63544	
5662	56.610	-752.10132	-8.19275	-643.10303	817.93726	-6.35481	-648.22491	-660.40356	19.21499	491.69293	782.30951	19.45342	501.59058	33.79329	1282.62744	-998.03033	
5663	56.620	-752.38068	-8.05849	-643.08246	817.75647	-6.16719	-648.23828	-660.62274	18.95533	491.77405	782.06024	19.24823	501.68817	33.77164	1282.97241	-997.77863	
5664	56.630	-752.63605	-7.88793	-643.06671	817.49475	-6.03419	-648.30182	-660.85809	18.76624	491.88602	781.63123	19.01073	501.73148	32.88707	1283.50464	-997.31970	
5665	56.640	-752.92157	-7.73505	-643.09973	817.11444	-5.69589	-648.26373	-661.14789	18.41899	492.02643	781.22559	18.79371	501.76694	32.55988	1283.90430	-996.96222	
5666	56.650	-753.27026	-7.36074	-642.87390	816.81042	-5.28591	-648.16248	-661.41010	18.25315	492.08157	780.50092	18.57196	501.89206	32.46231	1284.40710	-996.70142	
5667	56.660	-753.63763	-7.06749	-642.61584	816.46198	-4.95552	-647.93176	-661.72302	18.13792	492.17206	780.37305	18.39141	501.88406	32.16831	1284.79846	-996.50732	
5668	56.670	-754.08618	-6.91708	-642.44556	816.11176	-4.83212	-647.81097	-662.19519	18.00476	492.25406	780.22736	18.20902	501.93881	31.83135	1285.30359	-996.16730	
5669	56.680	-754.47009	-6.67969	-642.47632	815.77686	-4.45608	-647.72723	-662.74371	17.85363	492.33813	779.81372	17.93757	502.08588	31.52361	1285.65747	-995.25104	
5670	56.690	-754.87708	-6.35108	-642.56689	815.19897	-4.12121	-647.73743	-663.15057	17.52194	492.49213	779.49030	17.59346	502.15594	31.37925	1286.07898	-994.81677	
5671	56.700	-755.15417	-5.75799	-642.71362	814.74908	-4.03063	-647.78210	-663.51862	17.36143	492.43393	778.94830	17.34408	502.18378	30.95062	1286.62231	-993.95331	
5672	56.710	-755.57727	-5.32978	-642.60645	814.17163	-3.67771	-647.72583	-663.84467	17.12750	492.47235	778.30609	17.19854	502.26105	29.77439	1287.14539	-993.25836	
5673	56.720	-755.99377	-5.05962	-642.48486	813.87665	-3.07216	-647.57507	-664.24219	16.99420	492.53296	777.97046	17.03694	502.31662	29.53365	1287.53845	-992.30396	
5674	56.730	-756.61517	-4.64194	-642.24811	813.54919	-2.68629	-647.51050	-664.67780	16.82541	492.65878	777.65918	16.84252	502.37152	29.37959	1287.91064	-991.22382	
5675	56.740	-757.16473	-4.47297	-642.18488	813.28400	-2.50528	-647.42731	-665.23822	16.61598	492.73965	777.36670	16.54914	502.47546	28.75296	1288.36218	-990.15955	
5676	56.750	-757.43188	-4.33693	-642.15765	812.74744	-2.32106	-647.45679	-665.78461	16.36566	492.69922	777.16516	16.66426	502.48596	28.38536	1288.88611	-989.29132	
5677	56.760	-757.86414	-4.01643	-642.09955	812.13031	-1.94619	-647.36261	-666.20990	16.12749	492.86975	776.28021	16.09520	502.44592	28.16054	1289.45129	-988.48364	
5678	56.770	-758.51349	-3.50332	-642.04974	811.67517	-1.68893	-647.08954	-666.64069	16.04477	493.12415	775.29456	15.86639	502.55136	27.17249	1290.05066	-987.91364	
5679	56.780	-758.89795	-3.23252	-641.90814	810.90149	-1.45479	-647.08850	-667.32587	15.76979	493.19720	774.91547	15.68304	502.53870	26.72047	1290.61328	-987.54095	
5680	56.790	-759.56653	-2.87273	-641.84949	810.50525	-1.04106	-647.00446	-667.84381	15.62512	493.19846	774.60913	15.43597	502.64001	26.28346	1291.10046	-986.96124	
5681	56.800	-760.30463	-2.65257	-641.60315	809.98712	-0.55123	-646.96075	-668.43292	15.37438	493.28381	774.05756	15.06094	502.69482	26.11058	1291.34448	-986.69550	
5682	56.810	-760.75366	-2.44081	-641.63739	809.84161	-0.48622	-646.89075	-668.77576	15.06945	493.31985	773.33386	14.75337	502.67801	25.34619	1291.82861	-986.32007	
5683	56.820	-761.13904	-2.11657	-641.58820	808.97693	-0.16393	-646.79034	-669.24982	14.70631	493.35422	772.63568	14.58468	502.94385	24.71661	1292.54382	-985.29877	
5684	56.830	-761.54462	-1.60683	-641.60992	808.21564	0.23691	-646.72156	-669.83820	14.45802	493.46796	772.22601	14.36248	503.01364	24.39560	1293.03882	-984.88763	
5685	56.840	-762.25702	-1.09381	-641.54382	807.53253	0.68442	-646.46637	-670.50275	14.27265	493.64285	771.87823	14.12602	503.11032	23.57904	1293.52258	-983.99701	
